<svg width="1804" height="1204" viewBox="0 0 1804 1204" fill="none" xmlns="http://www.w3.org/2000/svg">
<path d="M367.549 523.504C324.329 248.826 9.13821 289.628 9.13821 289.628C9.13821 289.628 98.7236 594.562 367.549 523.504Z" fill="#97C66F"/>
<path d="M958.028 338.091C958.028 524.34 807.043 675.325 620.792 675.325C434.543 675.325 283.557 524.34 283.557 338.091C283.557 151.841 434.543 0.854573 620.792 0.854573C807.043 0.854573 958.028 151.841 958.028 338.091Z" fill="#163D92"/>
<path d="M675.308 824.927C675.308 1011.18 524.323 1162.16 338.072 1162.16C151.823 1162.16 0.837463 1011.18 0.837463 824.927C0.837463 638.677 151.823 487.692 338.072 487.692C524.323 487.692 675.308 638.677 675.308 824.927Z" fill="#163D92"/>
<path d="M1352.74 629.982C1191.63 723.42 985.269 668.556 891.83 507.44C798.392 346.324 853.256 139.967 1014.37 46.5298C1175.49 -46.9089 1381.85 7.95511 1475.28 169.071C1568.72 330.187 1513.86 536.543 1352.74 629.982Z" fill="#163D92"/>
<path d="M1128.99 825.036C1128.99 1011.29 1279.97 1162.27 1466.22 1162.27C1652.47 1162.27 1803.46 1011.29 1803.46 825.036C1803.46 638.787 1652.47 487.801 1466.22 487.801C1279.97 487.801 1128.99 638.787 1128.99 825.036Z" fill="#163D92"/>
<path d="M1291.02 824.927C1291.02 616.037 1121.68 446.699 912.787 446.699C703.898 446.699 534.56 616.037 534.56 824.927C534.56 1033.82 703.898 1203.15 912.787 1203.15C1121.68 1203.15 1291.02 1033.82 1291.02 824.927Z" fill="#F6CCD5"/>
<path d="M754.453 912.325C754.453 954.958 719.892 989.52 677.258 989.52C634.624 989.52 600.062 954.958 600.062 912.325C600.062 869.69 634.624 835.13 677.258 835.13C719.892 835.13 754.453 869.69 754.453 912.325Z" fill="#E9ACBE"/>
<path d="M1225.51 912.325C1225.51 954.958 1190.95 989.52 1148.32 989.52C1105.68 989.52 1071.12 954.958 1071.12 912.325C1071.12 869.69 1105.68 835.13 1148.32 835.13C1190.95 835.13 1225.51 869.69 1225.51 912.325Z" fill="#E9ACBE"/>
<path d="M914.755 986.881L932.674 980.093C937.893 978.116 943.634 978.102 948.861 980.057C968.225 987.298 1015.59 1006.09 1020.97 1018.48C1027.73 1034.1 990.95 1073 987.142 1075.95C983.369 1078.93 955.893 1104.68 912.791 1104.25C869.657 1104.68 842.214 1078.93 838.407 1075.95C834.601 1073 797.822 1034.1 804.609 1018.48C809.965 1006.08 857.333 987.296 876.694 980.056C881.918 978.102 887.655 978.113 892.873 980.088L910.827 986.881C912.093 987.361 913.49 987.361 914.755 986.881Z" fill="#DE7296"/>
<path d="M950.195 910.953C947.58 928.862 925.235 935.946 913.251 922.406C913.085 922.207 912.953 922.042 912.787 921.843C912.621 922.042 912.456 922.207 912.324 922.406C900.34 935.946 877.996 928.862 875.38 910.953C869.288 869.325 899 798.491 909.343 775.474C910.681 772.495 914.893 772.495 916.232 775.474C926.576 798.491 956.287 869.325 950.195 910.953Z" fill="#E597B1"/>
<path d="M630.867 622.734C629.227 623.194 628.087 621.154 629.38 620.046C640.259 610.725 669.872 591.432 710.413 583.897C752.595 576.057 813.044 576.236 838.795 592.228C848.863 598.48 844.827 620.548 832.976 620.448C825.125 620.381 811.492 617.332 795.423 614.296C752.173 606.128 710.016 600.574 630.867 622.734Z" fill="#163D92"/>
<path d="M630.867 622.734C629.227 623.194 628.087 621.154 629.38 620.046C640.259 610.725 669.872 591.432 710.413 583.897C752.595 576.057 813.044 576.236 838.795 592.228C848.863 598.48 844.827 620.548 832.976 620.448C825.125 620.381 811.492 617.332 795.423 614.296C752.173 606.128 710.016 600.574 630.867 622.734Z" stroke="#163D92" stroke-width="3.30133" stroke-miterlimit="10"/>
<path d="M1194.9 622.734C1196.54 623.194 1197.68 621.154 1196.39 620.046C1185.51 610.725 1155.9 591.432 1115.35 583.897C1073.17 576.057 1012.73 576.236 986.973 592.228C976.905 598.48 980.941 620.548 992.792 620.448C1000.64 620.381 1014.28 617.332 1030.35 614.296C1073.6 606.128 1115.75 600.574 1194.9 622.734Z" fill="#163D92"/>
<path d="M1194.9 622.734C1196.54 623.194 1197.68 621.154 1196.39 620.046C1185.51 610.725 1155.9 591.432 1115.35 583.897C1073.17 576.057 1012.73 576.236 986.973 592.228C976.905 598.48 980.941 620.548 992.792 620.448C1000.64 620.381 1014.28 617.332 1030.35 614.296C1073.6 606.128 1115.75 600.574 1194.9 622.734Z" stroke="#163D92" stroke-width="3.30133" stroke-miterlimit="10"/>
<path d="M844.366 760.349C818.447 807.531 766.482 821.933 708.57 804.713C647.227 786.474 638.139 732.849 638.139 732.849L675.261 705.061L731.673 703.853L762.663 707.797L800.866 721.883C800.866 721.883 828.589 744.422 830.842 744.422C833.097 744.422 844.366 760.349 844.366 760.349Z" fill="white"/>
<path d="M803.728 730.122C803.728 760.478 779.233 785.074 749.035 785.074C718.805 785.074 694.311 760.478 694.311 730.122C694.311 726.215 694.739 722.375 695.531 718.702C695.629 718.106 695.761 717.542 695.893 716.947C698.267 707.281 703.179 698.641 709.871 691.755C714.388 692.715 719.267 693.211 724.541 693.146C724.871 693.146 725.068 692.782 724.871 692.517C724.376 691.821 723.519 690.53 722.563 688.677C726.156 689.239 729.948 689.538 734.003 689.471C734.332 689.471 734.531 689.107 734.332 688.842C733.409 687.551 731.267 684.241 729.321 678.845C731.629 677.951 734.003 677.222 736.443 676.659C737.036 677.289 737.629 677.918 738.256 678.513C744.453 684.671 752.068 690.398 761.267 694.271C771.915 698.739 781.179 703.309 789.223 707.877C793.772 710.426 797.925 713.007 801.717 715.523C802.211 717.245 802.607 718.999 802.904 720.787C803.397 723.535 803.661 726.382 803.695 729.261C803.728 729.559 803.728 729.825 803.728 730.122Z" fill="#97C66F"/>
<path d="M836.06 749.322C823.679 736.545 812.107 729.102 798.667 722.648C795.952 721.322 793.171 720.098 790.391 719.006C752.223 703.58 714.053 708.38 693.032 712.981C689.093 713.842 685.783 714.702 683.168 715.398C681.677 715.794 680.387 716.158 679.393 716.424C666.88 719.966 649.236 727.68 641.556 731.156C639.007 732.314 639.603 732.678 633.347 732.909C633.347 732.909 577.96 734.182 578.357 734.049C588.553 731.104 626.957 717.814 633.512 713.113C633.711 712.981 633.711 712.65 633.479 712.55C630.136 710.201 607.161 693.417 604.415 669.252C609.048 674.713 633.744 700.07 671.979 695.9C672.309 695.866 672.476 695.502 672.244 695.238C669.297 692.292 655.725 676.865 658.903 647.998C661.419 654.553 673.799 679.513 702.467 687.293C703.924 687.69 705.447 688.054 707.035 688.352C711.439 689.212 716.205 689.676 721.369 689.609C721.668 689.609 721.865 689.278 721.668 689.046C721.204 688.418 720.343 687.226 719.416 685.538H719.383C718.556 684.016 717.596 682.029 716.669 679.646C713.921 672.694 711.537 662.034 713.193 647.734C715.013 651.573 721.8 663.49 732.988 674.548C733.552 675.11 734.147 675.673 734.743 676.236C740.801 681.864 748.249 687.094 757.221 690.636C767.648 694.741 776.685 698.912 784.532 703.082C789 705.433 793.005 707.85 796.747 710.101C823.428 726.024 831.657 741.808 836.06 749.322Z" fill="#163D92"/>
<path d="M836.06 749.322C823.679 736.545 812.107 729.102 798.667 722.648C795.952 721.322 793.171 720.098 790.391 719.006C752.223 703.58 714.053 708.38 693.032 712.981C689.093 713.842 685.783 714.702 683.168 715.398C681.677 715.794 680.387 716.158 679.393 716.424C666.88 719.966 649.236 727.68 641.556 731.156C639.007 732.314 639.603 732.678 633.347 732.909C633.347 732.909 577.96 734.182 578.357 734.049C588.553 731.104 626.957 717.814 633.512 713.113C633.711 712.981 633.711 712.65 633.479 712.55C630.136 710.201 607.161 693.417 604.415 669.252C609.048 674.713 633.744 700.07 671.979 695.9C672.309 695.866 672.476 695.502 672.244 695.238C669.297 692.292 655.725 676.865 658.903 647.998C661.419 654.553 673.799 679.513 702.467 687.293C703.924 687.69 705.447 688.054 707.035 688.352C711.439 689.212 716.205 689.676 721.369 689.609C721.668 689.609 721.865 689.278 721.668 689.046C721.204 688.418 720.343 687.226 719.416 685.538H719.383C718.556 684.016 717.596 682.029 716.669 679.646C713.921 672.694 711.537 662.034 713.193 647.734C715.013 651.573 721.8 663.49 732.988 674.548C733.552 675.11 734.147 675.673 734.743 676.236C740.801 681.864 748.249 687.094 757.221 690.636C767.648 694.741 776.685 698.912 784.532 703.082C789 705.433 793.005 707.85 796.747 710.101C823.428 726.024 831.657 741.808 836.06 749.322Z" stroke="#163D92" stroke-width="3.31067" stroke-miterlimit="10" stroke-linecap="square"/>
<path d="M981.209 761.488C1007.13 808.669 1059.09 823.072 1117 805.852C1178.35 787.613 1187.43 733.988 1187.43 733.988L1150.31 706.198L1093.9 704.992L1062.91 708.936L1024.71 723.022C1024.71 723.022 996.986 745.561 994.732 745.561C992.478 745.561 981.209 761.488 981.209 761.488Z" fill="white"/>
<path d="M1021.85 731.261C1021.85 761.617 1046.34 786.213 1076.54 786.213C1106.77 786.213 1131.26 761.617 1131.26 731.261C1131.26 727.355 1130.84 723.515 1130.04 719.84C1129.95 719.244 1129.81 718.681 1129.68 718.085C1127.31 708.42 1122.4 699.78 1115.7 692.895C1111.19 693.853 1106.31 694.351 1101.03 694.284C1100.7 694.284 1100.51 693.92 1100.7 693.655C1101.2 692.96 1102.06 691.669 1103.01 689.816C1099.42 690.377 1095.63 690.676 1091.57 690.609C1091.24 690.609 1091.04 690.245 1091.24 689.981C1092.17 688.689 1094.31 685.379 1096.25 679.984C1093.95 679.089 1091.57 678.361 1089.13 677.799C1088.54 678.428 1087.95 679.056 1087.32 679.652C1081.12 685.809 1073.51 691.537 1064.31 695.409C1053.66 699.879 1044.4 704.447 1036.35 709.015C1031.8 711.564 1027.65 714.147 1023.86 716.663C1023.36 718.384 1022.97 720.139 1022.67 721.927C1022.18 724.673 1021.91 727.52 1021.88 730.4C1021.85 730.699 1021.85 730.963 1021.85 731.261Z" fill="#97C66F"/>
<path d="M989.514 750.461C1001.9 737.684 1013.47 730.241 1026.91 723.786C1029.62 722.462 1032.4 721.237 1035.18 720.145C1073.35 704.718 1111.52 709.518 1132.54 714.12C1136.48 714.981 1139.79 715.841 1142.41 716.537C1143.9 716.933 1145.19 717.297 1146.18 717.562C1158.69 721.105 1176.34 728.818 1184.02 732.294C1186.57 733.453 1185.97 733.817 1192.23 734.048C1192.23 734.048 1247.62 735.321 1247.22 735.189C1237.02 732.242 1198.62 718.953 1192.06 714.252C1191.86 714.12 1191.86 713.789 1192.1 713.689C1195.44 711.34 1218.41 694.556 1221.16 670.39C1216.53 675.852 1191.83 701.21 1153.6 697.038C1153.26 697.005 1153.1 696.641 1153.33 696.377C1156.28 693.43 1169.85 678.004 1166.67 649.137C1164.16 655.692 1151.78 680.652 1123.11 688.432C1121.65 688.829 1120.13 689.193 1118.54 689.49C1114.14 690.352 1109.37 690.816 1104.21 690.749C1103.91 690.749 1103.71 690.417 1103.91 690.185C1104.37 689.557 1105.23 688.365 1106.16 686.677H1106.19C1107.02 685.154 1107.98 683.168 1108.91 680.785C1111.65 673.833 1114.04 663.173 1112.38 648.873C1110.56 652.712 1103.78 664.629 1092.59 675.686C1092.02 676.249 1091.43 676.812 1090.83 677.374C1084.77 683.002 1077.32 688.233 1068.35 691.774C1057.93 695.88 1048.89 700.05 1041.04 704.222C1036.57 706.572 1032.57 708.989 1028.83 711.24C1002.15 727.162 993.917 742.946 989.514 750.461Z" fill="#163D92"/>
<path d="M989.514 750.461C1001.9 737.684 1013.47 730.241 1026.91 723.786C1029.62 722.462 1032.4 721.237 1035.18 720.145C1073.35 704.718 1111.52 709.518 1132.54 714.12C1136.48 714.981 1139.79 715.841 1142.41 716.537C1143.9 716.933 1145.19 717.297 1146.18 717.562C1158.69 721.105 1176.34 728.818 1184.02 732.294C1186.57 733.453 1185.97 733.817 1192.23 734.048C1192.23 734.048 1247.62 735.321 1247.22 735.189C1237.02 732.242 1198.62 718.953 1192.06 714.252C1191.86 714.12 1191.86 713.789 1192.1 713.689C1195.44 711.34 1218.41 694.556 1221.16 670.39C1216.53 675.852 1191.83 701.21 1153.6 697.038C1153.26 697.005 1153.1 696.641 1153.33 696.377C1156.28 693.43 1169.85 678.004 1166.67 649.137C1164.16 655.692 1151.78 680.652 1123.11 688.432C1121.65 688.829 1120.13 689.193 1118.54 689.49C1114.14 690.352 1109.37 690.816 1104.21 690.749C1103.91 690.749 1103.71 690.417 1103.91 690.185C1104.37 689.557 1105.23 688.365 1106.16 686.677H1106.19C1107.02 685.154 1107.98 683.168 1108.91 680.785C1111.65 673.833 1114.04 663.173 1112.38 648.873C1110.56 652.712 1103.78 664.629 1092.59 675.686C1092.02 676.249 1091.43 676.812 1090.83 677.374C1084.77 683.002 1077.32 688.233 1068.35 691.774C1057.93 695.88 1048.89 700.05 1041.04 704.222C1036.57 706.572 1032.57 708.989 1028.83 711.24C1002.15 727.162 993.917 742.946 989.514 750.461Z" stroke="#163D92" stroke-width="3.31067" stroke-miterlimit="10" stroke-linecap="square"/>
</svg>
